<svg xmlns="http://www.w3.org/2000/svg" width="297.45" height="337.343" viewBox="0 0 297.45001 337.34299"><path fill="#e4a227" d="M260.908 299.786l-110.32 29.557-110.016-29.514L16.055 34.082H285.45z"/><path fill="#f0bf26" d="M260.644 55.483H150.526v250.939l89.144-23.883z"/><path fill="#ebebeb" d="M150.474 238.711l-.146.041-37.56-9.802-2.404-25.994H76.511l4.725 51.175 69.083 18.534.155-.043zM85.372 92.086l-7.926 85.806-.823 8.751h78.394v-32.591h-41.529l4.87-51.152 36.753-.946-.094-33.893h-67.15z"/><path fill="#fff" d="M154.789 102l.148-.041 36.835 2.144 3.125 33.65h33.855l-5.9-62.97-67.907-6.737-.156.042z"/><path fill="#fff" d="M225.276 102.1l-2.89-34.039h-71.19V102.1h74.08m-5.272 146.524l7.926-85.805.822-8.752h-78.394v32.591h41.529l-3.915 42.27-37.614 9.812v33.91l69.14-18.52z"/></svg>